<mxfile host="app.diagrams.net" modified="2022-12-16T17:18:07.063Z" agent="5.0 (Windows NT 10.0; Win64; x64) AppleWebKit/537.36 (KHTML, like Gecko) Chrome/108.0.0.0 Safari/537.36" etag="_9qlVCMSyTXroxXQ6dci" version="20.7.4" type="github">
  <diagram id="C5RBs43oDa-KdzZeNtuy" name="Page-1">
    <mxGraphModel dx="2219" dy="909" grid="1" gridSize="10" guides="1" tooltips="1" connect="1" arrows="1" fold="1" page="1" pageScale="1" pageWidth="827" pageHeight="1169" math="0" shadow="0">
      <root>
        <mxCell id="WIyWlLk6GJQsqaUBKTNV-0" />
        <mxCell id="WIyWlLk6GJQsqaUBKTNV-1" parent="WIyWlLk6GJQsqaUBKTNV-0" />
        <mxCell id="OeQV_F3_QMh7ZNfaNAOo-4" value="" style="edgeStyle=orthogonalEdgeStyle;rounded=0;orthogonalLoop=1;jettySize=auto;html=1;" edge="1" parent="WIyWlLk6GJQsqaUBKTNV-1" source="OeQV_F3_QMh7ZNfaNAOo-0" target="OeQV_F3_QMh7ZNfaNAOo-21">
          <mxGeometry relative="1" as="geometry">
            <mxPoint x="400.0344827586207" y="140" as="targetPoint" />
          </mxGeometry>
        </mxCell>
        <mxCell id="OeQV_F3_QMh7ZNfaNAOo-0" value="Начало, имеем активную клетку" style="rounded=1;whiteSpace=wrap;html=1;" vertex="1" parent="WIyWlLk6GJQsqaUBKTNV-1">
          <mxGeometry x="340" y="130" width="120" height="60" as="geometry" />
        </mxCell>
        <mxCell id="OeQV_F3_QMh7ZNfaNAOo-8" value="" style="edgeStyle=orthogonalEdgeStyle;rounded=0;orthogonalLoop=1;jettySize=auto;html=1;" edge="1" parent="WIyWlLk6GJQsqaUBKTNV-1" source="OeQV_F3_QMh7ZNfaNAOo-5" target="OeQV_F3_QMh7ZNfaNAOo-7">
          <mxGeometry relative="1" as="geometry" />
        </mxCell>
        <mxCell id="OeQV_F3_QMh7ZNfaNAOo-5" value="Получение соседей&lt;br&gt;(Не исследованные и открытый список)" style="rounded=0;whiteSpace=wrap;html=1;" vertex="1" parent="WIyWlLk6GJQsqaUBKTNV-1">
          <mxGeometry x="340" y="330" width="120" height="60" as="geometry" />
        </mxCell>
        <mxCell id="OeQV_F3_QMh7ZNfaNAOo-10" value="" style="edgeStyle=orthogonalEdgeStyle;rounded=0;orthogonalLoop=1;jettySize=auto;html=1;" edge="1" parent="WIyWlLk6GJQsqaUBKTNV-1" source="OeQV_F3_QMh7ZNfaNAOo-7" target="OeQV_F3_QMh7ZNfaNAOo-9">
          <mxGeometry relative="1" as="geometry" />
        </mxCell>
        <mxCell id="OeQV_F3_QMh7ZNfaNAOo-7" value="Для каждого соседа" style="shape=hexagon;perimeter=hexagonPerimeter2;whiteSpace=wrap;html=1;fixedSize=1;" vertex="1" parent="WIyWlLk6GJQsqaUBKTNV-1">
          <mxGeometry x="340" y="420" width="120" height="80" as="geometry" />
        </mxCell>
        <mxCell id="OeQV_F3_QMh7ZNfaNAOo-12" style="edgeStyle=orthogonalEdgeStyle;rounded=0;orthogonalLoop=1;jettySize=auto;html=1;" edge="1" parent="WIyWlLk6GJQsqaUBKTNV-1" source="OeQV_F3_QMh7ZNfaNAOo-9" target="OeQV_F3_QMh7ZNfaNAOo-11">
          <mxGeometry relative="1" as="geometry" />
        </mxCell>
        <mxCell id="OeQV_F3_QMh7ZNfaNAOo-13" value="Не исследованный" style="edgeLabel;html=1;align=center;verticalAlign=middle;resizable=0;points=[];" vertex="1" connectable="0" parent="OeQV_F3_QMh7ZNfaNAOo-12">
          <mxGeometry x="-0.5061" y="3" relative="1" as="geometry">
            <mxPoint x="2" y="-18" as="offset" />
          </mxGeometry>
        </mxCell>
        <mxCell id="OeQV_F3_QMh7ZNfaNAOo-15" value="" style="edgeStyle=orthogonalEdgeStyle;rounded=0;orthogonalLoop=1;jettySize=auto;html=1;" edge="1" parent="WIyWlLk6GJQsqaUBKTNV-1" source="OeQV_F3_QMh7ZNfaNAOo-9" target="OeQV_F3_QMh7ZNfaNAOo-14">
          <mxGeometry relative="1" as="geometry" />
        </mxCell>
        <mxCell id="OeQV_F3_QMh7ZNfaNAOo-16" value="Открытый список" style="edgeLabel;html=1;align=center;verticalAlign=middle;resizable=0;points=[];" vertex="1" connectable="0" parent="OeQV_F3_QMh7ZNfaNAOo-15">
          <mxGeometry x="-0.2545" y="2" relative="1" as="geometry">
            <mxPoint x="-10" y="-13" as="offset" />
          </mxGeometry>
        </mxCell>
        <mxCell id="OeQV_F3_QMh7ZNfaNAOo-9" value="Категория соседа?" style="rhombus;whiteSpace=wrap;html=1;" vertex="1" parent="WIyWlLk6GJQsqaUBKTNV-1">
          <mxGeometry x="310" y="540" width="180" height="50" as="geometry" />
        </mxCell>
        <mxCell id="OeQV_F3_QMh7ZNfaNAOo-32" value="" style="edgeStyle=orthogonalEdgeStyle;rounded=0;orthogonalLoop=1;jettySize=auto;html=1;" edge="1" parent="WIyWlLk6GJQsqaUBKTNV-1" source="OeQV_F3_QMh7ZNfaNAOo-11" target="OeQV_F3_QMh7ZNfaNAOo-31">
          <mxGeometry relative="1" as="geometry" />
        </mxCell>
        <mxCell id="OeQV_F3_QMh7ZNfaNAOo-11" value="Устанавливаем себя как пред. клетку" style="whiteSpace=wrap;html=1;" vertex="1" parent="WIyWlLk6GJQsqaUBKTNV-1">
          <mxGeometry x="180" y="620" width="120" height="60" as="geometry" />
        </mxCell>
        <mxCell id="OeQV_F3_QMh7ZNfaNAOo-20" value="" style="edgeStyle=orthogonalEdgeStyle;rounded=0;orthogonalLoop=1;jettySize=auto;html=1;" edge="1" parent="WIyWlLk6GJQsqaUBKTNV-1" source="OeQV_F3_QMh7ZNfaNAOo-14" target="OeQV_F3_QMh7ZNfaNAOo-19">
          <mxGeometry relative="1" as="geometry" />
        </mxCell>
        <mxCell id="OeQV_F3_QMh7ZNfaNAOo-14" value="Получаем его расстояние до старта" style="whiteSpace=wrap;html=1;" vertex="1" parent="WIyWlLk6GJQsqaUBKTNV-1">
          <mxGeometry x="500" y="600" width="120" height="60" as="geometry" />
        </mxCell>
        <mxCell id="OeQV_F3_QMh7ZNfaNAOo-27" value="" style="edgeStyle=orthogonalEdgeStyle;rounded=0;orthogonalLoop=1;jettySize=auto;html=1;" edge="1" parent="WIyWlLk6GJQsqaUBKTNV-1" source="OeQV_F3_QMh7ZNfaNAOo-19" target="OeQV_F3_QMh7ZNfaNAOo-26">
          <mxGeometry relative="1" as="geometry" />
        </mxCell>
        <mxCell id="OeQV_F3_QMh7ZNfaNAOo-19" value="Наше расстояние до старта + расстояние до соседа" style="whiteSpace=wrap;html=1;" vertex="1" parent="WIyWlLk6GJQsqaUBKTNV-1">
          <mxGeometry x="500" y="683" width="120" height="60" as="geometry" />
        </mxCell>
        <mxCell id="OeQV_F3_QMh7ZNfaNAOo-23" value="" style="edgeStyle=orthogonalEdgeStyle;rounded=0;orthogonalLoop=1;jettySize=auto;html=1;" edge="1" parent="WIyWlLk6GJQsqaUBKTNV-1" source="OeQV_F3_QMh7ZNfaNAOo-21" target="OeQV_F3_QMh7ZNfaNAOo-5">
          <mxGeometry relative="1" as="geometry" />
        </mxCell>
        <mxCell id="OeQV_F3_QMh7ZNfaNAOo-21" value="Получение расстояния до начала" style="whiteSpace=wrap;html=1;rounded=0;" vertex="1" parent="WIyWlLk6GJQsqaUBKTNV-1">
          <mxGeometry x="340" y="240" width="120" height="60" as="geometry" />
        </mxCell>
        <mxCell id="OeQV_F3_QMh7ZNfaNAOo-29" value="" style="edgeStyle=orthogonalEdgeStyle;rounded=0;orthogonalLoop=1;jettySize=auto;html=1;exitX=1;exitY=0.5;exitDx=0;exitDy=0;" edge="1" parent="WIyWlLk6GJQsqaUBKTNV-1" source="OeQV_F3_QMh7ZNfaNAOo-26" target="OeQV_F3_QMh7ZNfaNAOo-28">
          <mxGeometry relative="1" as="geometry" />
        </mxCell>
        <mxCell id="OeQV_F3_QMh7ZNfaNAOo-41" value="Да" style="edgeLabel;html=1;align=center;verticalAlign=middle;resizable=0;points=[];" vertex="1" connectable="0" parent="OeQV_F3_QMh7ZNfaNAOo-29">
          <mxGeometry x="-0.0394" y="2" relative="1" as="geometry">
            <mxPoint as="offset" />
          </mxGeometry>
        </mxCell>
        <mxCell id="OeQV_F3_QMh7ZNfaNAOo-38" style="edgeStyle=orthogonalEdgeStyle;rounded=0;orthogonalLoop=1;jettySize=auto;html=1;" edge="1" parent="WIyWlLk6GJQsqaUBKTNV-1" source="OeQV_F3_QMh7ZNfaNAOo-26">
          <mxGeometry relative="1" as="geometry">
            <mxPoint x="429" y="960" as="targetPoint" />
          </mxGeometry>
        </mxCell>
        <mxCell id="OeQV_F3_QMh7ZNfaNAOo-39" value="Нет" style="edgeLabel;html=1;align=center;verticalAlign=middle;resizable=0;points=[];" vertex="1" connectable="0" parent="OeQV_F3_QMh7ZNfaNAOo-38">
          <mxGeometry x="-0.7811" y="-1" relative="1" as="geometry">
            <mxPoint as="offset" />
          </mxGeometry>
        </mxCell>
        <mxCell id="OeQV_F3_QMh7ZNfaNAOo-26" value="Через нас соседу ближе?" style="rhombus;whiteSpace=wrap;html=1;" vertex="1" parent="WIyWlLk6GJQsqaUBKTNV-1">
          <mxGeometry x="464" y="780" width="190" height="70" as="geometry" />
        </mxCell>
        <mxCell id="OeQV_F3_QMh7ZNfaNAOo-40" style="edgeStyle=orthogonalEdgeStyle;rounded=0;orthogonalLoop=1;jettySize=auto;html=1;exitX=0.5;exitY=1;exitDx=0;exitDy=0;entryX=0;entryY=0.5;entryDx=0;entryDy=0;" edge="1" parent="WIyWlLk6GJQsqaUBKTNV-1" source="OeQV_F3_QMh7ZNfaNAOo-28" target="OeQV_F3_QMh7ZNfaNAOo-7">
          <mxGeometry relative="1" as="geometry">
            <mxPoint x="150" y="820" as="targetPoint" />
            <Array as="points">
              <mxPoint x="679" y="960" />
              <mxPoint x="150" y="960" />
              <mxPoint x="150" y="460" />
            </Array>
          </mxGeometry>
        </mxCell>
        <mxCell id="OeQV_F3_QMh7ZNfaNAOo-28" value="Обновляем соседскую ссылку - ставим себя" style="whiteSpace=wrap;html=1;" vertex="1" parent="WIyWlLk6GJQsqaUBKTNV-1">
          <mxGeometry x="619" y="880" width="120" height="60" as="geometry" />
        </mxCell>
        <mxCell id="OeQV_F3_QMh7ZNfaNAOo-42" style="edgeStyle=orthogonalEdgeStyle;rounded=0;orthogonalLoop=1;jettySize=auto;html=1;" edge="1" parent="WIyWlLk6GJQsqaUBKTNV-1" source="OeQV_F3_QMh7ZNfaNAOo-31">
          <mxGeometry relative="1" as="geometry">
            <mxPoint x="239.99999999999955" y="960" as="targetPoint" />
          </mxGeometry>
        </mxCell>
        <mxCell id="OeQV_F3_QMh7ZNfaNAOo-31" value="Добавляем соседа в открытый список" style="whiteSpace=wrap;html=1;" vertex="1" parent="WIyWlLk6GJQsqaUBKTNV-1">
          <mxGeometry x="180" y="730" width="120" height="60" as="geometry" />
        </mxCell>
      </root>
    </mxGraphModel>
  </diagram>
</mxfile>
